# xmcd
#
# Track frame offsets: 
#        150
#        17503
#        39688
#        59595
#        73660
#        93115
#        115503
#        136243
#        159723
#        182405
#
# Disc length: 2679 seconds
#
# Revision: 4
# Processed by: cddbd v1.5.2PL0 Copyright (c) Steve Scherf et al.
# Submitted via: ExactAudioCopy v1.0b3
#
DISCID=7c0a750a
DTITLE=Aretha Franklin - What You See Is What You Sweat
DYEAR=1991
DGENRE=Soul
TTITLE0=Everyday People
TTITLE1=Ever Changing Times (Feat. Michael McDonald)
TTITLE2=What You See Is What You Sweat
TTITLE3=Mary Goes Round
TTITLE4=I Dreamed A Dream
TTITLE5=Someone Else's Eyes
TTITLE6=Doctor's Orders (Duet With Luther Vandross)
TTITLE7=You Can't Take Me For Granted
TTITLE8=What Did You Give
TTITLE9=Everyday People (Remix)
EXTD=
EXTT0=
EXTT1=
EXTT2=
EXTT3=
EXTT4=
EXTT5=
EXTT6=
EXTT7=
EXTT8=
EXTT9=
PLAYORDER=
